<svg xmlns="http://www.w3.org/2000/svg" width="32" height="32"><circle fill="#CCE0FF" cx="16" cy="16" r="16"/><path d="M16 0C7.163 0 0 7.163 0 16s7.163 16 16 16 16-7.163 16-16S24.837 0 16 0zm0 30c-1.967 0-3.84-.407-5.538-1.139l7.286-8.197a1 1 0 0 0 .253-.664v-3a1 1 0 0 0-1-1c-3.531 0-7.256-3.671-7.293-3.707A1 1 0 0 0 9.001 12h-4a1 1 0 0 0-1 1v6c0 .379.214.725.553.895l3.447 1.724v5.871c-3.627-2.53-6-6.732-6-11.489 0-2.147.484-4.181 1.348-6h3.652c.265 0 .52-.105.707-.293l4-4c.188-.189.293-.443.293-.708V2.581a14.013 14.013 0 0 1 4-.581c2.2 0 4.281.508 6.134 1.412A5.961 5.961 0 0 0 20.002 8c0 1.603.624 3.109 1.757 4.243a5.987 5.987 0 0 0 4.536 1.751c.432 1.619 1.211 5.833-.263 11.635a.85.85 0 0 0-.026.163A13.952 13.952 0 0 1 16.002 30H16z"/></svg>